<?xml version="1.0" encoding="UTF-8"?>
<svg id="Warstwa_1" data-name="Warstwa 1" xmlns="http://www.w3.org/2000/svg" viewBox="0 0 296.06 297.89">
  <defs>
    <style>
      .cls-1 {
        fill: #2c2c2c;
      }

      .cls-2 {
        fill: #ee8443;
      }
    </style>
  </defs>
  <path class="cls-2" d="M151.88,92.79v-43.88c-61.18,0-102.92,42.53-102.92,100.41h46.36c0-32.73,23.92-56.53,56.56-56.53Z"/>
  <path class="cls-1" d="M182.66,149.33c0-17.31-12.45-30.03-30.72-30.09h-.13c-18.26.06-30.72,12.78-30.72,30.09,0,17.31,12.46,30.03,30.72,30.09h.13c18.26-.06,30.72-12.79,30.72-30.09Z"/>
  <path class="cls-2" d="M151.88,205.68v43.88c-61.18,0-102.92-42.53-102.92-100.41h46.36c0,32.73,23.92,56.53,56.56,56.53Z"/>
  <path class="cls-2" d="M247.76,117.2c-10.94-43.58-51.24-68.28-95.88-68.28v43.88c17.45,0,36.84,9.11,46.12,24.4,0-.08,49.77-.08,49.77,0Z"/>
  <path class="cls-2" d="M247.76,181.44c-10.94,43.57-51.24,68.28-95.88,68.28v-43.88c17.45,0,36.84-9.11,46.12-24.4,0,.08,49.77.08,49.77,0Z"/>
  <path class="cls-1" d="M247.76,137.28h-98.39v24.1h98.39v-24.1Z"/>
</svg>